<?xml version="1.0" encoding="utf-8"?>
<!-- Generator: Adobe Illustrator 26.2.1, SVG Export Plug-In . SVG Version: 6.00 Build 0)  -->
<svg version="1.1" id="Réteg_1" xmlns="http://www.w3.org/2000/svg" xmlns:xlink="http://www.w3.org/1999/xlink" x="0px" y="0px"
	 viewBox="0 0 320 120" style="enable-background:new 0 0 320 120;" xml:space="preserve">
<style type="text/css">
	.st0{display:none;fill:#CD3E33;}
	.st1{fill:#CD3E33;}
	.st2{fill:none;stroke:#CD3E33;stroke-miterlimit:10;}
	.st3{fill:none;stroke:#CD3E33;stroke-width:2.5512;stroke-miterlimit:10;}
</style>
<g>
	<path class="st0" d="M4,82.2c0-5.5,0.1-11,0.1-16.5c0-4.7,0.1-9.5,0.1-14.2c0-0.6,0.1-1.1,0.1-1.6c0-0.4,0.2-0.7,0.5-0.9
		c0.5-0.4,1.1-0.8,1.8-0.9C7.3,48,8,47.9,8.7,47.8c1.8-0.3,3.6-0.6,5.3-0.8c2.3-0.3,4.6-0.7,7-0.9c2.2-0.2,4.3-0.6,6.4-0.9
		c2.7-0.3,5.4-0.7,8.2-1.1c1.3-0.2,2.5-0.4,3.8-0.5c1.6-0.2,3.2-0.4,4.8-0.7c1.1-0.2,2.3-0.3,3.4-0.4c2.7-0.4,5.4-0.7,8.2-1.1
		c1.9-0.3,3.8-0.5,5.7-0.8c1.6-0.2,3.3-0.4,4.9-0.6c1.6-0.2,3.3-0.4,4.9-0.7c1.7-0.2,3.3-0.4,5-0.7c1.5-0.2,3-0.4,4.5-0.6
		c1.6-0.2,3.3-0.4,4.9-0.7c2.3-0.3,4.5-0.6,6.8-0.9c2.3-0.3,4.5-0.6,6.8-0.9c3.1-0.4,6.1-0.8,9.2-1.2c2.4-0.3,4.9-0.7,7.3-1
		c3.4-0.4,6.7-0.9,10.1-1.3c3.4-0.5,6.8-0.9,10.1-1.4c1.9-0.3,3.8-0.5,5.7-0.8c2.6-0.4,5.2-0.7,7.8-1.1c2.2-0.3,4.5-0.6,6.7-0.9
		c2.2-0.3,4.3-0.6,6.5-0.9c1.6-0.2,3.1-0.4,4.7-0.6c2.9-0.4,5.9-0.8,8.8-1.2c2.1-0.3,4.2-0.6,6.3-0.8c2.5-0.3,4.9-0.7,7.4-1
		c2.7-0.4,5.4-0.7,8.1-1.1c1.8-0.2,3.6-0.5,5.4-0.7c2.3-0.3,4.5-0.7,6.8-0.9c2.2-0.3,4.4-0.6,6.6-0.9c2.2-0.3,4.5-0.7,6.7-0.9
		s4.5-0.6,6.7-0.9c2.2-0.3,4.3-0.6,6.5-0.9c2.4-0.3,4.9-0.7,7.3-1c4-0.5,7.9-1.1,11.9-1.6c2.4-0.3,4.8-0.6,7.2-1
		c2-0.3,4-0.6,6.1-0.8c2.4-0.3,4.8-0.6,7.3-1c2.7-0.4,5.3-0.7,8-1.1c2.6-0.3,5.3-0.7,7.9-1c1.7-0.2,3.3-0.5,5-0.7
		c2.7-0.4,5.4-0.7,8.2-1.1c1.9-0.3,3.8-0.6,5.7-0.8c1.2-0.2,2.4-0.3,3.5-0.4c0.2,0,0.4,0,0.6,0c0.3,0,0.5,0.2,0.5,0.4
		c0.1,0.3,0.1,0.5,0.1,0.8c0,3,0.1,6,0.1,9c0,10.1,0,20.2,0.1,30.3c0.1,7.1,0,14.2,0.1,21.2c0,0.7-0.1,1.3-0.3,2
		c-0.5,1.3-1.4,2.1-2.7,2.5c-0.8,0.3-1.7,0.4-2.6,0.5c-2.3,0.3-4.6,0.6-6.9,0.9c-4,0.6-7.9,1.1-11.9,1.6c-2.8,0.4-5.7,0.8-8.5,1.2
		c-2.5,0.3-5,0.7-7.5,1c-1.8,0.2-3.6,0.5-5.3,0.8c-2.5,0.4-5.1,0.7-7.6,1c-1.2,0.2-2.5,0.4-3.7,0.5c-1.8,0.3-3.7,0.5-5.5,0.7
		c-4.1,0.6-8.1,1.1-12.1,1.7c-2.8,0.4-5.7,0.8-8.5,1.2c-1.6,0.2-3.1,0.4-4.7,0.6c-2.7,0.4-5.4,0.8-8.1,1.2c-2.5,0.3-5,0.7-7.5,1
		c-2.8,0.4-5.6,0.8-8.4,1.2c-2.4,0.3-4.9,0.7-7.3,1c-1.9,0.3-3.9,0.6-5.8,0.8c-3.3,0.5-6.6,0.9-9.9,1.4c-4.2,0.6-8.4,1.1-12.6,1.7
		c-2.4,0.3-4.8,0.7-7.2,1c-1.9,0.3-3.8,0.5-5.7,0.8c-4.1,0.6-8.1,1.1-12.1,1.7c-2.8,0.4-5.7,0.8-8.5,1.2c-1.5,0.2-3,0.4-4.5,0.6
		c-2.8,0.4-5.6,0.8-8.3,1.2c-2.6,0.4-5.1,0.7-7.7,1.1c-2.5,0.3-4.9,0.7-7.4,1c-2.5,0.3-5,0.7-7.5,1c-1.7,0.2-3.4,0.5-5.2,0.7
		c-2.5,0.4-5.1,0.7-7.6,1c-2.8,0.4-5.7,0.8-8.5,1.2c-2.4,0.3-4.8,0.7-7.3,1c-2.4,0.3-4.8,0.7-7.2,1c-1.7,0.2-3.4,0.5-5.1,0.7
		c-0.9,0.1-1.9,0.3-2.8,0.4c-1.8,0.3-3.7,0.5-5.5,0.8c-2.1,0.3-4.2,0.6-6.3,0.9c-2.2,0.3-4.5,0.7-6.7,1c-1.2,0.2-2.5,0.3-3.7,0.5
		c-0.4,0.1-0.9,0.1-1.4,0.2c-2.4,0.3-4.8,0.7-7.2,1.1c-2.8,0.4-5.6,0.8-8.4,1.1c-2.4,0.3-4.9,0.7-7.3,1c-1.1,0.2-2.1,0.3-3.2,0.5
		c-0.8,0.1-1.4-0.2-1.9-0.7c-0.3-0.3-0.3-0.7-0.3-1.1c0-0.8,0-1.6,0-2.4c0-4.7,0-9.4,0.1-14.1C4,92.1,3.9,87.1,4,82.2z M313.3,33.5
		c-0.1-4.8-0.1-8.2-0.1-11.5c0-3.6,0-7.1,0-10.7c0-0.2,0-0.5,0-0.7c0-0.6-0.2-0.8-0.8-0.9c-0.2,0-0.4,0-0.6,0
		c-0.9,0.1-1.8,0.1-2.6,0.2c-3,0.4-5.9,0.8-8.9,1.2c-1.5,0.2-3.1,0.4-4.6,0.6c-1.4,0.2-2.9,0.4-4.3,0.6c-2.9,0.4-5.9,0.8-8.8,1.2
		c-2.5,0.3-5,0.7-7.5,1c-3.3,0.4-6.5,0.9-9.8,1.3c-3.3,0.4-6.6,0.9-9.9,1.3c-2.3,0.3-4.6,0.6-6.9,0.9c-2.3,0.3-4.5,0.7-6.8,0.9
		c-2.2,0.3-4.4,0.6-6.6,0.9c-2.2,0.3-4.4,0.6-6.6,0.9c-2.3,0.3-4.6,0.6-6.9,0.9c-2.6,0.3-5.3,0.7-7.9,1.1c-1.9,0.3-3.7,0.5-5.6,0.8
		c-2.6,0.3-5.2,0.7-7.8,1.1c-2,0.3-3.9,0.5-5.9,0.8c-1.1,0.2-2.2,0.3-3.3,0.4c-1.7,0.2-3.3,0.4-5,0.7c-1.4,0.2-2.8,0.4-4.3,0.6
		c-2.7,0.4-5.3,0.7-8,1c-1.8,0.2-3.6,0.5-5.3,0.7c-2.6,0.3-5.3,0.7-7.9,1c-2.1,0.3-4.3,0.6-6.4,0.9c-2.4,0.3-4.7,0.7-7.1,1
		c-3.4,0.4-6.9,1-10.3,1.4c-3.3,0.4-6.6,0.9-9.9,1.3c-2.4,0.3-4.9,0.7-7.3,1c-1.1,0.2-2.2,0.3-3.3,0.5c-1.1,0.1-2.1,0.3-3.2,0.4
		c-2.9,0.4-5.7,0.8-8.6,1.2c-2.6,0.4-5.1,0.7-7.7,1c-1.8,0.2-3.7,0.5-5.5,0.7c-1.6,0.2-3.2,0.5-4.8,0.6c-2.5,0.3-5.1,0.7-7.6,1
		c-3.1,0.4-6.2,0.8-9.2,1.3c-2.9,0.4-5.8,0.8-8.7,1.2c-2.8,0.4-5.6,0.7-8.3,1.1c-2.3,0.3-4.6,0.6-6.9,0.9c-2.9,0.4-5.8,0.8-8.7,1.2
		c-1.6,0.2-3.3,0.4-4.9,0.6c-2.9,0.4-5.9,0.8-8.8,1.2c-1.7,0.2-3.3,0.4-5,0.7c-1.5,0.2-3,0.4-4.5,0.6c-1.8,0.2-3.5,0.5-5.3,0.7
		C7.3,50.8,7,51.3,7,52.5c0,1.5,0,2.9,0,4.4c0,3.7-0.1,7.4-0.1,11.2c0,5.8,0.1,11.5-0.1,17.3c0,1.2,0,2.4,0,3.7
		c-0.1,3.7,0,7.3-0.1,11c-0.1,3.3-0.1,6.7-0.1,10c0,0.2,0,0.4,0,0.6c0.2,1,1.2,1.7,2.2,1.6c1.7-0.2,3.4-0.5,5.1-0.7
		c2.6-0.4,5.1-0.7,7.7-1.1c1.9-0.3,3.9-0.5,5.8-0.8c2.4-0.3,4.8-0.7,7.1-1c1.5-0.2,3.1-0.4,4.6-0.6c1.6-0.2,3.1-0.5,4.7-0.7
		c3.1-0.4,6.1-0.8,9.1-1.3c2.2-0.3,4.5-0.6,6.7-0.9c2.5-0.3,5.1-0.7,7.6-1.1c1.8-0.2,3.6-0.5,5.3-0.8c2.5-0.3,5-0.7,7.5-1
		c2.5-0.3,4.9-0.7,7.4-1c2.8-0.4,5.6-0.8,8.3-1.1c3.2-0.4,6.3-0.9,9.5-1.3c2.1-0.3,4.2-0.6,6.3-0.9c2.6-0.4,5.1-0.7,7.7-1.1
		c1.9-0.3,3.9-0.5,5.8-0.8c1.4-0.2,2.8-0.4,4.3-0.6c2.5-0.3,5-0.7,7.4-1c2.7-0.4,5.5-0.8,8.2-1.2c2.8-0.4,5.6-0.8,8.4-1.2
		c1.8-0.3,3.7-0.5,5.5-0.7c1.6-0.2,3.1-0.4,4.7-0.7c1.8-0.3,3.6-0.5,5.3-0.7c1.4-0.2,2.7-0.4,4.1-0.6c1.7-0.2,3.4-0.5,5.2-0.7
		c1.4-0.2,2.7-0.4,4.1-0.6c1.6-0.1,3.2-0.5,4.8-0.7c2.5-0.3,5-0.7,7.5-1c2.9-0.4,5.7-0.9,8.6-1.2c1.5-0.2,3.1-0.4,4.6-0.7
		c1.9-0.3,3.9-0.5,5.8-0.8c2.4-0.3,4.7-0.7,7.1-1c2.5-0.3,5-0.7,7.4-1c2.1-0.3,4.3-0.6,6.4-0.9c2.4-0.3,4.8-0.7,7.2-1
		c3.1-0.4,6.1-0.9,9.1-1.3c2.4-0.3,4.8-0.6,7.2-1c1.5-0.2,3-0.4,4.4-0.6c3.7-0.5,7.5-1.1,11.2-1.6c2.5-0.3,5-0.8,7.5-1
		c1.5-0.2,3-0.4,4.4-0.6c2.2-0.3,4.5-0.6,6.7-0.9c1.3-0.2,2.6-0.4,3.9-0.6c1.8-0.2,3.6-0.5,5.4-0.7c1.7-0.2,3.4-0.5,5.2-0.7
		c1.1-0.2,2.1-0.3,3.2-0.4c0.7-0.1,1.4-0.2,2.1-0.3c0.5-0.1,0.8-0.4,0.9-0.9c0.1-0.4,0.1-0.8,0.1-1.3c0-0.9,0-1.9,0-2.8
		c0-4.1,0-8.3-0.1-12.4C313.3,45.7,313.3,38.9,313.3,33.5z"/>
	<path class="st1" d="M11.7,79.8c0-8.8,0-17.5,0-26.3c0-0.2,0-0.4,0-0.5c0-0.7,0.4-1,1-1.3c0.2-0.1,0.5-0.1,0.8-0.2
		c1.6-0.2,3.2-0.4,4.8-0.7c1.5-0.2,3.1-0.4,4.6-0.6c3.8-0.5,7.6-1,11.4-1.5c2.4-0.3,4.9-0.6,7.3-0.9c2.7-0.3,5.3-0.7,8-1.1
		c1.6-0.2,3.1-0.4,4.7-0.6c1.7-0.2,3.4-0.5,5.2-0.7c2.6-0.3,5.2-0.7,7.8-1c1.2-0.2,2.4-0.3,3.6-0.5c1.8-0.2,3.7-0.5,5.5-0.8
		c3.1-0.4,6.3-0.8,9.4-1.2c2.9-0.4,5.9-0.8,8.8-1.2c2.5-0.3,5-0.7,7.5-1c2.6-0.3,5.1-0.6,7.6-1c2.7-0.3,5.4-0.7,8.1-1.1
		c2.6-0.3,5.2-0.7,7.8-1c1.9-0.2,3.8-0.5,5.7-0.8c3.4-0.5,6.9-0.9,10.3-1.3c2.6-0.3,5.2-0.7,7.8-1.1c2.8-0.4,5.7-0.7,8.5-1.1
		c2.4-0.3,4.9-0.7,7.3-1c2.1-0.3,4.3-0.5,6.4-0.8c0.9-0.1,1.7-0.2,2.6-0.4c2.9-0.4,5.7-0.8,8.6-1.2c2.4-0.3,4.9-0.6,7.3-1
		c2.1-0.3,4.3-0.6,6.4-0.9c1.8-0.2,3.6-0.5,5.4-0.7c3.1-0.4,6.2-0.8,9.3-1.2c2.5-0.3,5-0.6,7.6-1c1.4-0.2,2.8-0.4,4.3-0.6
		c2.1-0.3,4.2-0.5,6.3-0.8c0.9-0.1,1.8-0.2,2.7-0.4c3.1-0.4,6.2-0.8,9.3-1.2c2.6-0.3,5.1-0.7,7.6-1c2.1-0.3,4.1-0.5,6.2-0.8
		c0.8-0.1,1.7-0.2,2.5-0.3c2.2-0.3,4.5-0.6,6.8-0.9c2.3-0.3,4.6-0.6,6.8-0.9c2.5-0.3,5-0.7,7.5-1c3.4-0.4,6.8-0.9,10.2-1.3
		c2.5-0.3,4.9-0.7,7.4-1c2.1-0.3,4.1-0.5,6.2-0.8c1-0.1,2.1-0.3,3.1-0.4c0.4-0.1,0.7,0,1.1,0.1c0.4,0.1,0.5,0.4,0.6,0.7
		c0,0.3,0.1,0.6,0,0.9c-0.1,1.3,0,2.5,0,3.8c0,1.5,0,3,0,4.5c0,2.8,0.1,5.6,0.2,8.3c0,1.3,0,2.6,0.1,3.9c0.1,3.3,0.1,6.6,0.2,10
		c0.1,2.3,0.1,4.5,0.1,6.8c0,2.2,0,4.4,0.1,6.5c0.1,1.9,0.1,3.8,0.1,5.7c0,0.9,0,1.8,0,2.8c0,0.2,0,0.4,0,0.6c0,0.3-0.2,0.6-0.5,0.7
		c-0.3,0.1-0.5,0.2-0.8,0.2c-2.1,0.3-4.3,0.6-6.4,0.9c-2.7,0.4-5.5,0.7-8.2,1.1c-2.6,0.4-5.3,0.7-7.9,1.1c-1.6,0.2-3.1,0.4-4.7,0.6
		c-1.2,0.2-2.5,0.4-3.7,0.5c-2.8,0.4-5.5,0.7-8.3,1.1c-1.8,0.2-3.5,0.5-5.3,0.7c-3.3,0.4-6.5,0.9-9.8,1.3c-3.1,0.4-6.1,0.8-9.1,1.2
		c-2.7,0.4-5.4,0.7-8.2,1.1c-2.6,0.4-5.3,0.7-7.9,1.1c-3.1,0.4-6.1,0.8-9.1,1.2c-3.1,0.4-6.2,0.8-9.2,1.3c-3.2,0.4-6.3,0.8-9.5,1.3
		c-3.1,0.4-6.1,0.8-9.2,1.3c-2.8,0.4-5.7,0.7-8.5,1.1c-1.3,0.2-2.7,0.4-4,0.6c-2.4,0.3-4.8,0.7-7.2,1c-3.2,0.4-6.4,0.9-9.6,1.3
		c-1.4,0.2-2.7,0.3-4.1,0.5c-1.4,0.2-2.8,0.4-4.2,0.6c-2.5,0.3-4.9,0.7-7.4,1c-3.2,0.4-6.4,0.9-9.6,1.3c-3.1,0.4-6.1,0.8-9.2,1.2
		c-3.8,0.5-7.6,1-11.4,1.5c-2.9,0.4-5.7,0.8-8.6,1.2c-3,0.4-6,0.8-9.1,1.2c-3.3,0.4-6.7,0.9-10,1.3c-2.9,0.4-5.7,0.8-8.6,1.2
		c-2.5,0.3-4.9,0.6-7.4,1c-1.3,0.2-2.6,0.4-3.9,0.6c-1.7,0.2-3.4,0.4-5.1,0.7c-2.6,0.4-5.3,0.7-7.9,1.1c-2.8,0.4-5.6,0.7-8.4,1.1
		c-1.3,0.2-2.6,0.4-3.9,0.6c-1.7,0.2-3.4,0.4-5.1,0.7c-2.9,0.4-5.7,0.8-8.6,1.2c-1.6,0.2-3.2,0.4-4.8,0.6c-3.1,0.4-6.3,0.8-9.4,1.3
		c-0.4,0.1-0.7,0.1-1.1,0.2c-1.1,0.1-1.7-0.5-1.7-1.6C11.8,97.5,11.8,88.7,11.7,79.8C11.7,79.8,11.7,79.8,11.7,79.8z M147.8,82.2
		c1.4,0,3-0.3,4.6-0.7c1-0.2,2-0.5,2.9-1c1.8-0.9,3.4-2,4.9-3.3c1.9-1.6,3.4-3.5,4.6-5.7c0.7-1.3,1.2-2.7,1.7-4
		c0.4-1.2,0.7-2.5,1-3.7c0.3-1.3,0.1-2.5,0.2-3.8c0-0.3,0-0.7-0.1-1c-0.2-1.3-0.4-2.5-0.6-3.8c-0.5-2.5-1.3-4.8-2.5-7
		c-0.8-1.3-1.8-2.4-3-3.2c-1.4-1-3.1-1.6-4.7-2.1c-2.2-0.6-4.4-0.7-6.7-0.3c-0.6,0.1-1.2,0.2-1.8,0.3c-1.6,0.3-3.2,0.8-4.7,1.5
		c-1.4,0.7-2.7,1.5-3.9,2.5c-0.6,0.5-1.1,1-1.6,1.5c-1.2,1.4-2.1,3-2.9,4.6c-0.8,1.5-1.3,3.1-1.9,4.8c-0.2,0.5-0.4,1.1-0.5,1.6
		c-0.3,1.4-0.5,2.8-0.6,4.2c0,0.5-0.1,0.9-0.1,1.3c-0.1,1.4,0.1,2.9,0.3,4.3c0.2,1.5,0.5,2.9,1.1,4.3c0.2,0.5,0.6,1,0.7,1.6
		c0.2,0.7,0.7,1.3,1.1,1.8c0.2,0.2,0.4,0.5,0.6,0.7c0.6,0.7,1.4,1.4,2.2,2c1.4,0.8,2.8,1.6,4.3,1.9c0.1,0,0.3,0.1,0.4,0.1
		C144.3,82,145.9,82.2,147.8,82.2z M23.8,77.2L23.8,77.2c0,1.3,0.1,2.6,0.1,3.9c0,4.1,0.2,8.1,0.2,12.2c0,0.6,0.1,1.1,0.4,1.6
		c0.4,0.7,0.8,1,1.6,0.9c0.1,0,0.2,0,0.4,0c1.8-0.2,3.7-0.5,5.5-0.7c0.7-0.1,1.1-0.4,1.5-1c0.2-0.3,0.2-0.8,0.2-1.1
		c-0.2-1-0.1-2.1-0.1-3.1c-0.1-1.6-0.1-3.2-0.2-4.8c0-0.6,0.1-1.2,0.5-1.7c0.4-0.6,0.8-1.2,1.2-1.9c0.2-0.2,0.3-0.4,0.5-0.7
		c0.2-0.2,0.5-0.2,0.7,0c0.1,0.2,0.2,0.3,0.3,0.5c0.7,1.3,1.4,2.6,2.1,3.9c1.1,2,2.2,4.1,3.2,6.1c0.2,0.3,0.4,0.7,0.7,0.9
		c0.7,0.7,1.5,1.2,2.6,1c1.6-0.2,3.2-0.4,4.8-0.6c1.3-0.2,2.6-0.3,3.9-0.5c0.5-0.1,0.7-0.3,0.8-0.7c0.1-0.5-0.1-0.9-0.3-1.4
		c-0.6-1-1.1-2-1.7-3c-1.8-3.2-3.7-6.4-5.5-9.6c-0.9-1.5-1.7-3-2.6-4.5c-0.3-0.5-0.5-0.9-0.7-1.5c-0.3-0.9-0.2-1.7,0.4-2.4
		c0.7-0.8,1.3-1.6,1.9-2.5c1.6-2.2,3.2-4.4,4.8-6.6c0.6-0.8,1.2-1.7,1.8-2.6c0.2-0.3,0.4-0.7,0.4-1.2c0-0.6-0.2-0.9-0.8-0.9
		c-0.5,0-1,0-1.5,0.1c-2.1,0.3-4.3,0.6-6.4,0.8c-1.2,0.2-2.2,0.6-2.8,1.7c-1.6,2.4-3.2,4.7-4.8,7.1c-0.9,1.4-1.9,2.8-2.8,4.1
		c-0.1,0.2-0.2,0.4-0.5,0.3c-0.2-0.1-0.1-0.3-0.1-0.5c-0.1-2.9-0.1-5.7-0.2-8.6c0-0.5-0.1-0.9-0.2-1.3c-0.3-0.9-0.6-1.2-1.6-1
		c-1.2,0.2-2.5,0.3-3.7,0.5c-0.8,0.1-1.7,0.2-2.5,0.3c-0.9,0.1-1.8,0.9-1.7,1.8c0,0.7,0,1.4,0,2.2C23.6,67.7,23.7,72.5,23.8,77.2z
		 M225.5,72.2c1.9,0,3.5-0.3,5-0.7c2.2-0.6,4.3-1.6,6.3-2.8c0.2-0.1,0.4-0.3,0.6-0.5c0.3-0.3,0.6-0.5,0.8-0.8
		c1.2-1.3,2.3-2.6,3.1-4.2c0.5-1,0.8-2.1,1.1-3.1c0.2-1.1,0.4-2.2,0.4-3.4c0-1-0.2-1.9-0.3-2.8c-0.1-1-0.4-1.9-0.9-2.7
		c-0.4-0.7-0.8-1.4-1.5-1.8c-1.6-1-3.4-1.6-5.3-1.9c-1.8-0.2-3.5-0.4-5.3-0.4c-0.7,0-1.4-0.1-2.1-0.2c-0.8-0.1-1.5-0.4-2.2-0.8
		c-1.1-0.6-1.7-2-1.2-3.2c0.3-0.8,0.8-1.3,1.5-1.7c0.9-0.5,1.8-0.8,2.8-0.8c0.9,0,1.8,0.3,2.4,0.9c0.1,0.1,0.3,0.2,0.4,0.4
		c0.5,0.6,1.1,0.8,1.9,0.8c0.3,0,0.6,0,0.9,0c1.2-0.1,2.4-0.2,3.7-0.3c0.5,0,1-0.1,1.5-0.1c0.4,0,0.8-0.1,1.2-0.3
		c0.8-0.5,1-1.2,0.8-2.1c-0.3-1.7-0.9-3.3-2.1-4.6c-0.5-0.5-1.1-0.9-1.6-1.4c-0.9-0.6-1.9-1.1-2.9-1.3c-1.5-0.3-3-0.4-4.5-0.3
		c-0.7,0.1-1.4,0.2-2.1,0.2c-1.2,0.1-2.3,0.4-3.4,0.7c-0.6,0.2-1.2,0.4-1.8,0.6c-1.1,0.5-2.2,1-3.1,1.7c-0.6,0.4-1.1,0.8-1.6,1.2
		c-0.9,0.7-1.6,1.5-2.2,2.4c-0.6,1.1-1.1,2.2-1.4,3.4c-0.6,1.9-0.6,3.9-0.2,5.8c0.1,0.5,0.2,1,0.5,1.5c0.2,0.4,0.4,0.8,0.5,1.1
		c0.4,1,1.1,1.8,1.9,2.5c1.3,1.3,2.9,1.8,4.6,2.1c1.9,0.4,3.8,0.6,5.6,0.9c1,0.2,2,0.4,2.9,0.7c0.9,0.3,1.6,1,2.1,1.8
		c0.1,0.1,0.1,0.3,0.1,0.5c0.1,1-0.3,1.9-1.1,2.5c-0.8,0.6-1.6,1-2.6,1.1c-0.6,0.1-1.1,0.1-1.7,0.1c-1.3-0.1-2.5-0.5-3.4-1.5
		c-0.2-0.2-0.4-0.4-0.6-0.6c-0.6-0.6-1.3-0.8-2.1-0.9c-0.9,0-1.8,0.1-2.7,0.3c-0.9,0.2-1.9,0.5-2.8,0.7c-0.4,0.1-0.8,0.3-1.1,0.6
		c-1.1,1-1.3,2.2-0.7,3.7c0.2,0.5,0.5,1,0.8,1.5c0.5,0.8,1.1,1.6,1.9,2.2c0.8,0.6,1.6,1.1,2.5,1.6c0.6,0.3,1.3,0.6,2,0.8
		C222.3,72.1,224.1,72.1,225.5,72.2z M173.4,59.4c0,1.6,0,3,0.3,4.4c0.2,1.4,0.6,2.7,0.9,4c0.3,1.3,0.9,2.4,1.6,3.5
		c0.7,1,1.6,1.9,2.6,2.7c1.5,1.2,3.1,2.1,4.9,2.6c0.8,0.2,1.6,0.3,2.4,0.5c0.7,0.1,1.4,0.2,2.1,0.1c1.8-0.1,3.5-0.4,5.2-0.9
		c2.1-0.6,4.1-1.6,5.9-2.8c0.4-0.2,0.7-0.5,1-0.8c1.7-1.4,3-3.1,4.1-4.9c0.9-1.5,1.6-3,1.9-4.7c0.1-0.5,0.2-1.1,0.3-1.7
		c0.1-0.9-0.3-1.4-1.1-1.7c-0.4-0.1-0.7-0.2-1.1-0.1c-0.9,0.2-1.9,0.1-2.9,0.2c-1.1,0.1-2.3,0.2-3.3,0.7c-0.3,0.1-0.6,0.3-0.9,0.5
		c-0.7,0.5-1.1,1.2-1.3,2c-0.2,0.5-0.4,1-0.7,1.5c-0.9,1.2-1.9,2.2-3.3,2.7c-1.4,0.5-2.9,0.7-4.4,0.3c-0.2-0.1-0.4-0.2-0.6-0.3
		c-1-0.7-1.8-1.6-2.2-2.8c-0.2-0.6-0.4-1.2-0.6-1.9c-0.5-2-0.4-4-0.1-6.1c0.2-1.8,0.7-3.6,1.3-5.3c0.2-0.7,0.6-1.4,0.9-2
		c0.8-1.3,1.9-2.3,3.4-2.9c1.5-0.6,3-0.4,4.4,0.4c0.9,0.5,1.7,1.2,2.3,2.1c0.3,0.5,0.6,0.9,1,1.4c0.4,0.5,0.9,0.8,1.6,0.9
		c1.6,0.1,3.2-0.1,4.8-0.5c0.3-0.1,0.6-0.2,0.8-0.3c1-0.5,1.5-1.3,1.4-2.5c0-0.2,0-0.5-0.1-0.7c-0.4-1.6-1.1-3.2-1.9-4.6
		c-0.2-0.4-0.5-0.7-0.7-1c-1.5-1.8-3.4-3-5.6-3.7c-0.7-0.2-1.3-0.3-2-0.4c-2.2-0.3-4.4-0.3-6.6,0c-0.6,0.1-1.2,0.2-1.7,0.4
		c-1.2,0.4-2.5,0.9-3.6,1.6c-0.2,0.2-0.4,0.3-0.7,0.4c-0.7,0.3-1.3,0.7-1.9,1.2c-1.6,1.2-2.9,2.7-4,4.3c-1.2,1.8-2.1,3.8-2.6,5.8
		c-0.4,1.5-0.8,3.1-1,4.6C173.6,57,173.5,58.3,173.4,59.4z M93.2,85.8C93.2,85.8,93.2,85.8,93.2,85.8c0-0.3,0-0.7-0.1-1
		c-0.3-1-0.6-2-0.9-3c-0.5-1.5-1-3.1-1.5-4.6c-0.9-2.8-1.8-5.5-2.7-8.3c-0.8-2.3-1.5-4.7-2.3-7c-0.8-2.5-1.6-4.9-2.4-7.4
		c-0.4-1.2-1.1-1.9-2.2-2.4c-0.5-0.3-1.1-0.4-1.7-0.3c-0.5,0.1-1,0.1-1.5,0.2c-1.4,0.2-2.9,0.4-4.3,0.6c-1.3,0.2-2.1,0.9-2.6,2
		c-0.2,0.5-0.4,1.1-0.6,1.6c-1.1,3.6-2.2,7.3-3.2,10.9c-1.1,3.6-2.1,7.1-3.2,10.7c-1.1,3.7-2.2,7.4-3.3,11.1
		c-0.1,0.4-0.2,0.9-0.3,1.3c-0.1,0.7,0.3,1.1,1,1.1c0.2,0,0.3,0,0.4-0.1c0.7-0.1,1.5-0.2,2.2-0.3c1.5-0.2,2.9-0.4,4.4-0.6
		c0.7-0.1,1.2-0.4,1.5-1.1c0.3-0.6,0.5-1.3,0.7-1.9c0.1-0.3,0.1-0.6,0.2-0.9c0.1-0.4,0.4-0.6,0.8-0.7c0.3-0.1,0.7-0.2,1.1-0.2
		c1.3-0.2,2.6-0.3,3.9-0.5c1.4-0.2,2.8-0.3,4.3-0.5c0.9-0.1,1.4,0.3,1.6,1.2c0.1,0.6,0.3,1.3,0.5,1.9c0.2,0.6,0.4,0.7,1,0.7
		c0.1,0,0.2,0,0.4-0.1c1.7-0.2,3.4-0.4,5.2-0.7c0.9-0.1,1.7-0.2,2.6-0.3c1-0.1,1.3-0.5,1.3-1.5C93.2,85.9,93.2,85.8,93.2,85.8z
		 M248.3,65.4c0,0.4,0,0.7,0.2,1.1c0.1,0.4,0.4,0.6,0.8,0.6c0.3,0,0.7,0,1-0.1c0.8-0.1,1.6-0.2,2.4-0.3c1.3-0.2,2.6-0.3,3.9-0.5
		c0.6-0.1,1.1-0.4,1.4-0.8c0.4-0.5,0.7-1.1,0.9-1.8c0.1-0.3,0.2-0.7,0.2-1c0.1-0.7,0.5-1.1,1.2-1.2c0.1,0,0.3,0,0.4,0
		c0.7-0.1,1.4-0.2,2-0.2c2.2-0.3,4.5-0.7,6.7-1c1-0.1,1.3,0.1,1.6,1c0,0.1,0.1,0.3,0.1,0.4c0.1,0.5,0.3,1,0.5,1.5
		c0.1,0.4,0.4,0.7,0.9,0.8c0.6,0.1,1.2,0.1,1.8,0c1.5-0.2,3-0.4,4.5-0.6c0.3,0,0.5-0.1,0.8-0.2c0.5-0.2,0.8-0.5,1.1-0.9
		c0.3-0.5,0.2-1,0.1-1.6c-0.1-0.5-0.3-1-0.4-1.5c-0.4-1.4-0.9-2.8-1.3-4.3c-0.7-2.1-1.3-4.2-2-6.3c-0.8-2.6-1.6-5.2-2.4-7.8
		c-0.7-2.1-1.3-4.3-2-6.4c-0.5-1.5-0.9-2.9-1.4-4.4c-0.2-0.5-0.4-1-0.7-1.4c-0.5-0.8-1.3-1.2-2.2-1.1c-0.5,0-1.1,0-1.6,0.1
		c-1.6,0.2-3.2,0.5-4.8,0.6c-1.3,0.1-2.1,0.8-2.5,2c-0.4,0.9-0.6,1.8-0.9,2.7c-1,3.1-2,6.2-3,9.3c-0.9,3-1.9,5.9-2.9,8.9
		c-0.9,2.9-1.9,5.9-2.8,8.8c-0.5,1.5-0.9,3-1.4,4.5C248.3,64.6,248.3,65,248.3,65.4z M100.3,67.5L100.3,67.5c0,5.1,0,10.2,0,15.2
		c0,0.5,0,1,0,1.4c0,0.4,0.1,0.8,0.2,1.2c0.2,0.6,0.5,0.8,1.1,0.7c0.3,0,0.5-0.1,0.8-0.1c0.9-0.1,1.8-0.2,2.8-0.3
		c2-0.2,4-0.6,6.1-0.8c1.9-0.2,3.8-0.5,5.7-0.8c2.3-0.3,4.6-0.6,6.8-0.9c0.4-0.1,0.8-0.2,1.2-0.3c0.4-0.1,0.6-0.3,0.8-0.7
		c0.2-0.3,0.3-0.7,0.3-1c0-1,0-1.9,0-2.9c0-0.4-0.1-0.8-0.2-1.2c-0.1-0.3-0.2-0.5-0.3-0.8c-0.2-0.3-0.4-0.5-0.8-0.5
		c-0.5,0-1,0-1.5,0.1c-1.3,0.2-2.6,0.4-3.9,0.5c-1.2,0.1-2.4,0.3-3.6,0.4c-1.1,0.1-2.2,0.3-3.4,0.4c-0.9,0.1-1.1-0.1-1.1-1
		c0,0,0-0.1,0-0.1c0-8,0-16,0-24c0-0.5,0-1-0.1-1.5c-0.2-1-0.8-1.8-1.7-2.3c-0.4-0.2-0.8-0.3-1.2-0.3c-0.3,0-0.6,0-0.9,0
		c-1.5,0.2-3.1,0.4-4.6,0.6c-0.3,0-0.7,0.1-1.1,0.2c-1,0.4-1.5,1-1.5,1.9c0,0.5,0,1,0,1.4C100.3,57.5,100.3,62.5,100.3,67.5z
		 M287.7,43.3c0,0.6,0,1.7,0,2.8c0,4.1-0.1,8.2-0.1,12.4c0,0.5,0,1,0.1,1.4c0.2,1.2,1,1.8,2.2,1.8c0.1,0,0.2,0,0.3,0
		c1.4,0,2.7-0.2,4-0.5c0.9-0.2,1.7-0.6,2.2-1.4c0.4-0.5,0.5-1.1,0.5-1.8c0-2.6,0.1-5.1,0.1-7.7c0.1-4.4,0-8.8,0.2-13.3
		c0.1-3.1,0.1-6.1,0.2-9.2c0-0.7,0-1.4,0-2.1c0-0.4-0.1-0.8-0.2-1.1c-0.3-0.6-0.7-1-1.4-0.9c-0.4,0-0.7,0-1.1,0.1
		c-1.1,0.1-2.2,0.3-3.3,0.4c-0.6,0.1-1.2,0.2-1.9,0.2c-0.4,0.1-0.8,0.3-1,0.6c-0.3,0.4-0.5,0.8-0.5,1.2c0,0.7-0.1,1.3-0.1,2
		C287.9,33.2,287.8,38,287.7,43.3z"/>
	<polygon class="st2" points="307.5,12.4 11.7,51.9 11.7,107.9 307.5,68.5 	"/>
	<path class="st1" d="M143.3,63.7c0-2.7,0.4-5.2,1.2-7.7c0.3-0.8,0.7-1.5,1.2-2.2c0.6-0.8,1.5-1.3,2.4-1.7c1.7-0.8,3.3-0.7,4.9,0.2
		c1,0.5,1.7,1.4,2.3,2.3c0.9,1.4,1.3,2.9,1.4,4.5c0.1,1.1,0.1,2.3-0.1,3.4c-0.1,1.1-0.4,2.1-0.6,3.2c-0.2,1.1-0.6,2.1-1,3.1
		c-0.8,1.8-2.2,3.1-4.1,3.8c-0.8,0.3-1.7,0.5-2.6,0.4c-1.7-0.1-2.9-0.9-3.7-2.3c-0.4-0.8-0.7-1.6-0.9-2.4c-0.2-0.9-0.3-1.8-0.4-2.8
		C143.3,64.9,143.3,64.2,143.3,63.7z"/>
	<path class="st1" d="M73.8,78.4c-0.4,0.1-0.6-0.3-0.7-0.7c0-0.2,0.1-0.5,0.1-0.7c0.8-2.8,1.5-5.7,2.3-8.6c0.2-0.9,0.5-1.8,0.7-2.8
		c0.1-0.2,0.1-0.5,0.4-0.6c0.2,0,0.3,0.1,0.5,0.6c0.4,1.4,0.7,2.8,1.1,4.2c0.5,2.1,1.1,4.2,1.6,6.3c0.1,0.3,0.1,0.5,0.2,0.8
		c0.1,0.5-0.1,0.8-0.7,0.8c-1.2,0.2-2.4,0.3-3.6,0.4C75.1,78.2,74.5,78.3,73.8,78.4z"/>
	<path class="st1" d="M268.2,51.5c0,0.5-0.2,0.9-0.8,1c-1.1,0.2-2.2,0.4-3.3,0.6c-0.6,0.1-1.1,0.2-1.7,0.3c-0.2,0-0.4,0.1-0.6,0
		c-0.4-0.2-0.6-0.5-0.5-0.9c0.2-1.1,0.5-2.3,0.8-3.4c0.6-2.7,1.2-5.4,1.8-8.1c0.1-0.5,0.2-1.1,0.4-1.7c0-0.1,0.1-0.2,0.2-0.2
		c0.1,0,0.2,0.1,0.2,0.2c0.1,0.4,0.2,0.9,0.4,1.3c0.8,2.7,1.5,5.4,2.3,8.1c0.2,0.8,0.4,1.6,0.6,2.4
		C268.1,51.2,268.2,51.3,268.2,51.5z"/>
	<g>
		<polygon class="st3" points="6.7,47.5 312.5,6.7 312.5,72.9 6.7,113.7 		"/>
	</g>
</g>
</svg>
